<svg xmlns="http://www.w3.org/2000/svg" xmlns:xlink="http://www.w3.org/1999/xlink" viewBox="0 0 575 412" width="575" height="412" style="width: 100%; height: 100%; transform: translate3d(0px, 0px, 0px); content-visibility: visible;" preserveAspectRatio="xMidYMid meet"><defs><clipPath id="__lottie_element_2"><rect width="575" height="412" x="0" y="0"></rect></clipPath><clipPath id="__lottie_element_7"><path d="M0,0 L315,0 L315,195 L0,195z"></path></clipPath><clipPath id="__lottie_element_11"><path d="M0,0 L27,0 L27,51 L0,51z"></path></clipPath><clipPath id="__lottie_element_15"><path d="M0,0 L63,0 L63,51 L0,51z"></path></clipPath><clipPath id="__lottie_element_19"><path d="M0,0 L311,0 L311,377 L0,377z"></path></clipPath><clipPath id="__lottie_element_24"><path d="M0,0 L30,0 L30,50 L0,50z"></path></clipPath><clipPath id="__lottie_element_41"><path d="M0,0 L30,0 L30,50 L0,50z"></path></clipPath><clipPath id="__lottie_element_50"><path d="M0,0 L30,0 L30,50 L0,50z"></path></clipPath><clipPath id="__lottie_element_55"><path d="M0,0 L314,0 L314,194 L0,194z"></path></clipPath><g id="__lottie_element_58"><g clip-path="url(#__lottie_element_59)" style="display: block;" transform="matrix(1,0,0,1,0,-95)" opacity="1"><g style="display: none;" transform="matrix(1,0,0,1,1,96)" opacity="1"><path fill="rgb(0,0,0)" fill-opacity="1" d=" M314,-1 C314,-1 -1,-1 -1,-1 C-1,-1 -1,194 -1,194 C-1,194 314,194 314,194 C314,194 314,-1 314,-1z"></path></g><g clip-path="url(#__lottie_element_71)" style="display: block;" transform="matrix(1,0,0,1,1,0)" opacity="1"><g style="display: block;" transform="matrix(1,0,0,1,0,96)" opacity="1"><path fill="rgb(0,0,0)" fill-opacity="1" d=" M312,0 C312,0 0,0 0,0 C0,0 0,0 0,0 C0,0 312,0 312,0 C312,0 312,0 312,0z"></path></g></g></g></g><clipPath id="__lottie_element_59"><path d="M0,0 L315,0 L315,384 L0,384z"></path></clipPath><mask id="__lottie_element_58_1" mask-type="alpha"><use xlink:href="#__lottie_element_58"></use></mask><clipPath id="__lottie_element_71"><path d="M0,0 L312,0 L312,288 L0,288z"></path></clipPath><clipPath id="__lottie_element_81"><path d="M0,0 L26,0 L26,50 L0,50z"></path></clipPath><g id="__lottie_element_84"><g clip-path="url(#__lottie_element_85)" style="display: block;" transform="matrix(1,0,0,1,-11,0)" opacity="1"><g style="display: none;" transform="matrix(1,0,0,1,12,1)" opacity="1"><path fill="rgb(0,0,0)" fill-opacity="1" d=" M26,-1 C26,-1 -1,-1 -1,-1 C-1,-1 -1,50 -1,50 C-1,50 26,50 26,50 C26,50 26,-1 26,-1z"></path></g><g clip-path="url(#__lottie_element_97)" style="display: block;" transform="matrix(1,0,0,1,0,1)" opacity="1"><g style="display: block;" transform="matrix(1,0,0,1,12,0)" opacity="1"><path fill="rgb(0,0,0)" fill-opacity="1" d=" M0,0 C0,0 0,0 0,0 C0,0 0,48 0,48 C0,48 0,48 0,48 C0,48 0,0 0,0z"></path></g></g></g></g><clipPath id="__lottie_element_85"><path d="M0,0 L48,0 L48,51 L0,51z"></path></clipPath><mask id="__lottie_element_84_1" mask-type="alpha"><use xlink:href="#__lottie_element_84"></use></mask><clipPath id="__lottie_element_97"><path d="M0,0 L36,0 L36,48 L0,48z"></path></clipPath><clipPath id="__lottie_element_107"><path d="M0,0 L62,0 L62,50 L0,50z"></path></clipPath><g id="__lottie_element_110"><g clip-path="url(#__lottie_element_111)" style="display: block;" transform="matrix(1,0,0,1,-29,0)" opacity="1"><g style="display: none;" transform="matrix(1,0,0,1,30,1)" opacity="1"><path fill="rgb(0,0,0)" fill-opacity="1" d=" M62,-1 C62,-1 -1,-1 -1,-1 C-1,-1 -1,50 -1,50 C-1,50 62,50 62,50 C62,50 62,-1 62,-1z"></path></g><g clip-path="url(#__lottie_element_123)" style="display: block;" transform="matrix(1,0,0,1,0,1)" opacity="1"><g style="display: block;" transform="matrix(1,0,0,1,90,0)" opacity="1"><path fill="rgb(0,0,0)" fill-opacity="1" d=" M0,0 C0,0 0,0 0,0 C0,0 0,48 0,48 C0,48 0,48 0,48 C0,48 0,0 0,0z"></path></g></g></g></g><clipPath id="__lottie_element_111"><path d="M0,0 L180,0 L180,51 L0,51z"></path></clipPath><mask id="__lottie_element_110_1" mask-type="alpha"><use xlink:href="#__lottie_element_110"></use></mask><clipPath id="__lottie_element_123"><path d="M0,0 L150,0 L150,48 L0,48z"></path></clipPath><clipPath id="__lottie_element_133"><path d="M0,0 L310,0 L310,376 L0,376z"></path></clipPath><g id="__lottie_element_136"><g clip-path="url(#__lottie_element_137)" style="display: block;" transform="matrix(1,0,0,1,-153,0)" opacity="1"><g style="display: block;" transform="matrix(1,0,0,1,154,1)" opacity="1"><path fill="rgb(0,0,0)" fill-opacity="1" d=" M309.25,-1 C309.25,-1 -1,-1 -1,-1 C-1,-1 -1,376 -1,376 C-1,376 309.25,376 309.25,376 C309.25,376 309.25,-1 309.25,-1z"></path></g><g clip-path="url(#__lottie_element_150)" style="display: block;" transform="matrix(1,0,0,1,0,1)" opacity="1"><g style="display: block;" transform="matrix(1,0,0,1,154,0)" opacity="1"><path fill="rgb(0,0,0)" fill-opacity="1" d=" M307.25,0 C307.25,0 0,0 0,0 C0,0 0,374 0,374 C0,374 307.25,374 307.25,374 C307.25,374 307.25,0 307.25,0z"></path></g></g></g></g><clipPath id="__lottie_element_137"><path d="M0,0 L616,0 L616,377 L0,377z"></path></clipPath><mask id="__lottie_element_136_1" mask-type="alpha"><use xlink:href="#__lottie_element_136"></use></mask><clipPath id="__lottie_element_150"><path d="M0,0 L462,0 L462,374 L0,374z"></path></clipPath></defs><g clip-path="url(#__lottie_element_2)"><g clip-path="url(#__lottie_element_7)" style="display: block;" transform="matrix(1,0,0,1,161,182)" opacity="0"><g style="display: block;" mask="url(#__lottie_element_58_1)"><g clip-path="url(#__lottie_element_55)" transform="matrix(1,0,0,1,0,0)" opacity="0"><g style="display: block;" transform="matrix(1,0,0,1,1,1)" opacity="1"><g opacity="1" transform="matrix(1,0,0,1,0,0)"><path fill="rgb(37,44,53)" fill-opacity="1" d=" M120,0 C120,0 192,0 192,0 C192,0 312,96 312,96 C312,96 216,192 216,192 C216,192 0,192 0,192 C0,192 168,96 168,96 C168,96 120,0 120,0 C120,0 120,0 120,0z"></path><path stroke-linecap="butt" stroke-linejoin="miter" fill-opacity="0" stroke-miterlimit="10" stroke="rgb(37,44,53)" stroke-opacity="1" stroke-width="0.2" d=" M120,0 C120,0 192,0 192,0 C192,0 312,96 312,96 C312,96 216,192 216,192 C216,192 0,192 0,192 C0,192 168,96 168,96 C168,96 120,0 120,0 C120,0 120,0 120,0z"></path></g><g opacity="1" transform="matrix(1,0,0,1,0,0)"><path fill="rgb(0,0,0)" fill-opacity="0" d=" M313,-1 C313,-1 -1,-1 -1,-1 C-1,-1 -1,193 -1,193 C-1,193 313,193 313,193 C313,193 313,-1 313,-1z"></path></g></g></g></g></g><g clip-path="url(#__lottie_element_11)" style="display: block;" transform="matrix(1,0,0,1,255,182)" opacity="0"><g style="display: block;" mask="url(#__lottie_element_84_1)"><g clip-path="url(#__lottie_element_81)" transform="matrix(1,0,0,1,0,0)" opacity="0"><g style="display: block;" transform="matrix(1,0,0,1,1,1)" opacity="1"><g opacity="1" transform="matrix(1,0,0,1,0,0)"><path fill="rgb(37,44,53)" fill-opacity="1" d=" M0,0 C0,0 24,48 24,48 C24,48 0,48 0,48 C0,48 0,0 0,0 C0,0 0,0 0,0z"></path><path stroke-linecap="butt" stroke-linejoin="miter" fill-opacity="0" stroke-miterlimit="10" stroke="rgb(37,44,53)" stroke-opacity="1" stroke-width="0.2" d=" M0,0 C0,0 24,48 24,48 C24,48 0,48 0,48 C0,48 0,0 0,0 C0,0 0,0 0,0z"></path></g><g opacity="1" transform="matrix(1,0,0,1,0,0)"><path fill="rgb(0,0,0)" fill-opacity="0" d=" M25,-1 C25,-1 -1,-1 -1,-1 C-1,-1 -1,49 -1,49 C-1,49 25,49 25,49 C25,49 25,-1 25,-1z"></path></g></g></g></g></g><g clip-path="url(#__lottie_element_15)" style="display: block;" transform="matrix(1,0,0,1,391,182)" opacity="0"><g style="display: block;" mask="url(#__lottie_element_110_1)"><g clip-path="url(#__lottie_element_107)" transform="matrix(1,0,0,1,0,0)" opacity="0"><g style="display: block;" transform="matrix(1,0,0,1,1,1)" opacity="1"><g opacity="1" transform="matrix(1,0,0,1,0,0)"><path fill="rgb(37,44,53)" fill-opacity="1" d=" M60,0 C60,0 0,0 0,0 C0,0 60,48 60,48 C60,48 60,0 60,0 C60,0 60,0 60,0z"></path><path stroke-linecap="butt" stroke-linejoin="miter" fill-opacity="0" stroke-miterlimit="10" stroke="rgb(37,44,53)" stroke-opacity="1" stroke-width="0.2" d=" M60,0 C60,0 0,0 0,0 C0,0 60,48 60,48 C60,48 60,0 60,0 C60,0 60,0 60,0z"></path></g><g opacity="1" transform="matrix(1,0,0,1,0,0)"><path fill="rgb(0,0,0)" fill-opacity="0" d=" M61,-1 C61,-1 -1,-1 -1,-1 C-1,-1 -1,49 -1,49 C-1,49 61,49 61,49 C61,49 61,-1 61,-1z"></path></g></g></g></g></g><g clip-path="url(#__lottie_element_19)" style="display: block;" transform="matrix(1,0,0,1,53,-1)" opacity="1"><g style="display: block;" mask="url(#__lottie_element_136_1)"><g clip-path="url(#__lottie_element_133)" transform="matrix(1,0,0,1,0,0)" opacity="1"><g style="display: block;" transform="matrix(1,0,0,1,1,1)" opacity="1"><g opacity="1" transform="matrix(1,0,0,1,0,0)"><path fill="rgb(37,44,53)" fill-opacity="1" d=" M216,374 C216,374 174.39999389648438,302 174.39999389648438,302 C174.39999389648438,302 257.6000061035156,158 257.6000061035156,158 C257.6000061035156,158 307.29998779296875,158 307.29998779296875,158 C307.29998779296875,158 216,0 216,0 C216,0 0,374 0,374 C0,374 216,374 216,374 C216,374 216,374 216,374z"></path><path stroke-linecap="butt" stroke-linejoin="miter" fill-opacity="0" stroke-miterlimit="10" stroke="rgb(37,44,53)" stroke-opacity="1" stroke-width="0.2" d=" M216,374 C216,374 174.39999389648438,302 174.39999389648438,302 C174.39999389648438,302 257.6000061035156,158 257.6000061035156,158 C257.6000061035156,158 307.29998779296875,158 307.29998779296875,158 C307.29998779296875,158 216,0 216,0 C216,0 0,374 0,374 C0,374 216,374 216,374 C216,374 216,374 216,374z"></path></g><g opacity="1" transform="matrix(1,0,0,1,0,0)"><path fill="rgb(0,0,0)" fill-opacity="0" d=" M308.25,-1 C308.25,-1 -1,-1 -1,-1 C-1,-1 -1,375 -1,375 C-1,375 308.25,375 308.25,375 C308.25,375 308.25,-1 308.25,-1z"></path></g></g></g></g></g><g clip-path="url(#__lottie_element_24)" style="display: block;" transform="matrix(1,0,0,1,269,325)" opacity="1"><g style="display: block;" transform="matrix(1,0,0,1,1,1)" opacity="1"><g opacity="1" transform="matrix(1,0,0,1,0,0)"><path fill="rgb(37,44,53)" fill-opacity="1" d=" M28,0 C28,0 0,0 0,0 C0,0 28,48 28,48 C28,48 28,0 28,0 C28,0 28,0 28,0z"></path><path stroke-linecap="butt" stroke-linejoin="miter" fill-opacity="0" stroke-miterlimit="10" stroke="rgb(37,44,53)" stroke-opacity="1" stroke-width="0.2" d=" M28,0 C28,0 0,0 0,0 C0,0 28,48 28,48 C28,48 28,0 28,0 C28,0 28,0 28,0z"></path></g><g opacity="1" transform="matrix(1,0,0,1,0,0)"><path fill="rgb(0,0,0)" fill-opacity="0" d=" M29,-1 C29,-1 -1,-1 -1,-1 C-1,-1 -1,49 -1,49 C-1,49 29,49 29,49 C29,49 29,-1 29,-1z"></path></g></g></g><g style="display: block;" transform="matrix(1,0,0,1,298,326)" opacity="1"><g opacity="1" transform="matrix(1,0,0,1,0,0)"><path fill="rgb(37,44,53)" fill-opacity="1" d=" M164,0 C164,0 0,0 0,0 C0,0 0,48 0,48 C0,48 164,48 164,48 C164,48 164,0 164,0z"></path><path stroke-linecap="butt" stroke-linejoin="miter" fill-opacity="0" stroke-miterlimit="10" stroke="rgb(37,44,53)" stroke-opacity="1" stroke-width="0.2" d=" M164,0 C164,0 0,0 0,0 C0,0 0,48 0,48 C0,48 164,48 164,48 C164,48 164,0 164,0z"></path></g><g opacity="1" transform="matrix(1,0,0,1,0,0)"><path fill="rgb(0,0,0)" fill-opacity="0" d=" M164.10000610351562,-0.10000038146972656 C164.10000610351562,-0.10000038146972656 -29.099998474121094,-0.10000038146972656 -29.099998474121094,-0.10000038146972656 C-29.099998474121094,-0.10000038146972656 -29.099998474121094,48.099998474121094 -29.099998474121094,48.099998474121094 C-29.099998474121094,48.099998474121094 164.10000610351562,48.099998474121094 164.10000610351562,48.099998474121094 C164.10000610351562,48.099998474121094 164.10000610351562,-0.10000038146972656 164.10000610351562,-0.10000038146972656z"></path></g></g><g style="display: block;" transform="matrix(1,0,0,1,298,326)" opacity="1"><g opacity="1" transform="matrix(1,0,0,1,0,0)"><path fill="rgb(37,44,53)" fill-opacity="1" d=" M164,0 C164,0 0,0 0,0 C0,0 0,48 0,48 C0,48 164,48 164,48 C164,48 164,0 164,0z"></path><path stroke-linecap="butt" stroke-linejoin="miter" fill-opacity="0" stroke-miterlimit="10" stroke="rgb(37,44,53)" stroke-opacity="1" stroke-width="0.2" d=" M164,0 C164,0 0,0 0,0 C0,0 0,48 0,48 C0,48 164,48 164,48 C164,48 164,0 164,0z"></path></g><g opacity="1" transform="matrix(1,0,0,1,0,0)"><path fill="rgb(0,0,0)" fill-opacity="0" d=" M250.10000610351562,-0.10000038146972656 C250.10000610351562,-0.10000038146972656 -43.100006103515625,-0.10000038146972656 -43.100006103515625,-0.10000038146972656 C-43.100006103515625,-0.10000038146972656 -43.100006103515625,48.099998474121094 -43.100006103515625,48.099998474121094 C-43.100006103515625,48.099998474121094 250.10000610351562,48.099998474121094 250.10000610351562,48.099998474121094 C250.10000610351562,48.099998474121094 250.10000610351562,-0.10000038146972656 250.10000610351562,-0.10000038146972656z"></path></g></g><g style="display: block;" transform="matrix(1,0,0,1,284,254)" opacity="1"><g opacity="1" transform="matrix(1,0,0,1,0,0)"><path fill="rgb(37,44,53)" fill-opacity="1" d=" M226,0 C226,0 0,0 0,0 C0,0 0,48 0,48 C0,48 226,48 226,48 C226,48 226,0 226,0z"></path><path stroke-linecap="butt" stroke-linejoin="miter" fill-opacity="0" stroke-miterlimit="10" stroke="rgb(37,44,53)" stroke-opacity="1" stroke-width="0.2" d=" M226,0 C226,0 0,0 0,0 C0,0 0,48 0,48 C0,48 226,48 226,48 C226,48 226,0 226,0z"></path></g><g opacity="1" transform="matrix(1,0,0,1,0,0)"><path fill="rgb(0,0,0)" fill-opacity="0" d=" M360.1000061035156,-0.10000038146972656 C360.1000061035156,-0.10000038146972656 -67.10000610351562,-0.10000038146972656 -67.10000610351562,-0.10000038146972656 C-67.10000610351562,-0.10000038146972656 -67.10000610351562,48.099998474121094 -67.10000610351562,48.099998474121094 C-67.10000610351562,48.099998474121094 360.1000061035156,48.099998474121094 360.1000061035156,48.099998474121094 C360.1000061035156,48.099998474121094 360.1000061035156,-0.10000038146972656 360.1000061035156,-0.10000038146972656z"></path></g></g><g clip-path="url(#__lottie_element_41)" style="display: block;" transform="matrix(1,0,0,1,255,253)" opacity="1"><g style="display: block;" transform="matrix(1,0,0,1,1,1)" opacity="1"><g opacity="1" transform="matrix(1,0,0,1,0,0)"><path fill="rgb(37,44,53)" fill-opacity="1" d=" M28,0 C28,0 0,48 0,48 C0,48 28,48 28,48 C28,48 28,0 28,0 C28,0 28,0 28,0z"></path><path stroke-linecap="butt" stroke-linejoin="miter" fill-opacity="0" stroke-miterlimit="10" stroke="rgb(37,44,53)" stroke-opacity="1" stroke-width="0.2" d=" M28,0 C28,0 0,48 0,48 C0,48 28,48 28,48 C28,48 28,0 28,0 C28,0 28,0 28,0z"></path></g><g opacity="1" transform="matrix(1,0,0,1,0,0)"><path fill="rgb(0,0,0)" fill-opacity="0" d=" M29,-1 C29,-1 -1,-1 -1,-1 C-1,-1 -1,49 -1,49 C-1,49 29,49 29,49 C29,49 29,-1 29,-1z"></path></g></g></g><g style="display: block;" transform="matrix(1,0,0,1,326,182)" opacity="1"><g opacity="1" transform="matrix(1,0,0,1,0,0)"><path fill="rgb(37,44,53)" fill-opacity="1" d=" M112,0 C112,0 0,0 0,0 C0,0 0,48 0,48 C0,48 112,48 112,48 C112,48 112,0 112,0z"></path><path stroke-linecap="butt" stroke-linejoin="miter" fill-opacity="0" stroke-miterlimit="10" stroke="rgb(37,44,53)" stroke-opacity="1" stroke-width="0.2" d=" M112,0 C112,0 0,0 0,0 C0,0 0,48 0,48 C0,48 112,48 112,48 C112,48 112,0 112,0z"></path></g><g opacity="1" transform="matrix(1,0,0,1,0,0)"><path fill="rgb(0,0,0)" fill-opacity="0" d=" M168.10000610351562,-0.10000038146972656 C168.10000610351562,-0.10000038146972656 -28.099998474121094,-0.10000038146972656 -28.099998474121094,-0.10000038146972656 C-28.099998474121094,-0.10000038146972656 -28.099998474121094,48.099998474121094 -28.099998474121094,48.099998474121094 C-28.099998474121094,48.099998474121094 168.10000610351562,48.099998474121094 168.10000610351562,48.099998474121094 C168.10000610351562,48.099998474121094 168.10000610351562,-0.10000038146972656 168.10000610351562,-0.10000038146972656z"></path></g></g><g clip-path="url(#__lottie_element_50)" style="display: block;" transform="matrix(1,0,0,1,297,181)" opacity="1"><g style="display: block;" transform="matrix(1,0,0,1,1,1)" opacity="1"><g opacity="1" transform="matrix(1,0,0,1,0,0)"><path fill="rgb(37,44,53)" fill-opacity="1" d=" M28,0 C28,0 0,48 0,48 C0,48 28,48 28,48 C28,48 28,0 28,0 C28,0 28,0 28,0z"></path><path stroke-linecap="butt" stroke-linejoin="miter" fill-opacity="0" stroke-miterlimit="10" stroke="rgb(37,44,53)" stroke-opacity="1" stroke-width="0.2" d=" M28,0 C28,0 0,48 0,48 C0,48 28,48 28,48 C28,48 28,0 28,0 C28,0 28,0 28,0z"></path></g><g opacity="1" transform="matrix(1,0,0,1,0,0)"><path fill="rgb(0,0,0)" fill-opacity="0" d=" M29,-1 C29,-1 -1,-1 -1,-1 C-1,-1 -1,49 -1,49 C-1,49 29,49 29,49 C29,49 29,-1 29,-1z"></path></g></g></g></g></svg>