<svg xmlns="http://www.w3.org/2000/svg" viewBox="0 0 460 460" fill="none" role="img" aria-label="Logo">
  <!-- primary shapes: inherit text color -->
  <g fill="currentColor">
    <polygon points="144,79 316,79 274,153 186,153"/>
    <polygon points="56,230 141,230 185,304 142,380"/>
    <polygon points="404,230 319,230 275,304 318,380"/>
  </g>
  <!-- secondary shapes: same color at 50% opacity (the mid-gray) -->
  <g fill="currentColor" fill-opacity="0.5">
    <polygon points="142,130 170,178 157,204 100,204"/>
    <polygon points="318,130 290,178 303,204 360,204"/>
    <polygon points="201,180 259,180 287,230 259,279 201,279 172,230"/>
    <polygon points="216,306 243,306 272,354 187,354"/>
  </g>
</svg>
