<?xml version="1.0" standalone="no"?>
<!DOCTYPE svg PUBLIC "-//W3C//DTD SVG 20010904//EN"
 "http://www.w3.org/TR/2001/REC-SVG-20010904/DTD/svg10.dtd">
<svg version="1.0" xmlns="http://www.w3.org/2000/svg"
 width="400.000000pt" height="400.000000pt" viewBox="0 0 400.000000 400.000000"
 preserveAspectRatio="xMidYMid meet">

<g transform="translate(0.000000,400.000000) scale(0.100000,-0.100000)"
fill="#0759F5" stroke="none">
<path d="M1779 3480 C1455.9 3431.7 1158.4 3273.9 930.7 3039.6 C703 2805.4 558.4 2502.8 519.3 2178.4 C480.2 1854 548.7 1525.8 714.2 1244.1 C879.7 962.4 1133.2 742.8 1435.6 619.1 C1738 495.4 2072.6 474.3 2388.1 559.2 C2703.6 644.2 2982.5 830.3 3182 1089.1 C3381.5 1347.9 3490.5 1665 3492.2 1991.7 C3494 2318.4 3385.6 2635.1 3189 2896 C3182 2900 3009 2734 2754 2479 L2330 2055 L2193 2193 L2055 2330 L2483 2758 L2910 3185 L2818 3247 C2666.2 3346.4 2496.8 3418.3 2319.5 3457.1 C2142.3 3495.9 1958.5 3506.8 1779 3480 Z"/>
</g>
</svg>
